<svg clip-rule="evenodd" fill-rule="evenodd" stroke-linejoin="round" stroke-miterlimit="2" viewBox="0 0 983 212" xmlns="http://www.w3.org/2000/svg"><g transform="scale(.856965 .5516)"><path fill="currentcolor" d="m777.857 325.427c-.623-.046-1.171-.169-1.644-.369-.616-.26-1.088-.682-1.416-1.266-.221-.393-.367-.873-.439-1.441v2.341c-.328.2-.748.376-1.26.528s-1.124.228-1.836.228c-1.456 0-2.57-.336-3.342-1.008s-1.158-1.664-1.158-2.976.404-2.304 1.212-2.976 1.972-1.008 3.492-1.008c.496 0 .942.026 1.338.078s1.232.249 1.938.643c-.482.532-.734 1.129-.792 1.78 0 0-2.639-.455-3.678.277-.364.22-.546.622-.546 1.206s.13.986.39 1.206.634.33 1.122.33c.256 0 .496-.028.72-.084v-.468h-1.284v-1.752h3.669c.066-.625.217-1.147.454-1.566.328-.58.8-1 1.416-1.26.473-.199 1.021-.322 1.644-.369l.585-1.669.585 1.669c.626.046 1.176.169 1.65.369.616.26 1.088.68 1.416 1.26.267.472.425 1.074.475 1.806l1.506.528-1.507.528c-.05.727-.208 1.327-.474 1.8-.328.584-.8 1.006-1.416 1.266-.474.2-1.024.324-1.65.37l-.585 1.668zm.585-7.883-1.017 2.903-2.903 1.017 2.903 1.018 1.017 2.903 1.018-2.903 2.903-1.018-2.903-1.017zm-45.207 7.784v-7.728h2.436l2.16 3.024v-3.024h2.904v7.728h-2.448l-2.148-3.024v3.024zm8.276-.473v-6.713h2.523v6.713zm3.253 0v-6.713h2.522v2.189h1.679v-2.189h2.522v6.713h-2.522v-2.189h-1.679v2.189zm10.841.105c-.758 0-1.404-.113-1.939-.339s-.945-.592-1.23-1.1c-.285-.507-.428-1.181-.428-2.022 0-.848.143-1.524.428-2.028.285-.503.695-.868 1.23-1.094s1.181-.339 1.939-.339c.757 0 1.403.113 1.938.339.536.226.946.591 1.231 1.094.284.504.427 1.18.427 2.028 0 .841-.143 1.515-.427 2.022-.285.508-.695.874-1.231 1.1-.535.226-1.181.339-1.938.339zm0-2.137c.368 0 .63-.099.787-.297.156-.198.234-.541.234-1.027 0-.487-.078-.829-.234-1.027-.157-.198-.419-.297-.787-.297-.369 0-.631.099-.787.297-.157.198-.235.54-.235 1.027 0 .486.078.829.235 1.027.156.198.418.297.787.297zm4.117 2.032v-6.713h2.116l1.876 2.627v-2.627h2.523v6.713h-2.126l-1.866-2.626v2.626z" transform="matrix(21.9136 0 -5.87174 34.045 -14152.7 -10752.5)"/></g></svg>
